<?xml version="1.0" encoding="utf-8"?>
<svg viewBox="0 0 500 500" xmlns="http://www.w3.org/2000/svg">
  <circle cx="251.15" cy="434.518" r="39.405" fill="#6c63ff" style=""/>
  <path d="M 246.928 23.343 C 185.345 23.777 134.92 73.824 134.045 135.403 C 134.038 135.972 134.033 139.969 134.034 145.198 C 134.035 161.162 146.976 174.104 162.94 174.105 C 178.923 174.102 191.874 161.137 191.86 145.153 C 191.857 141.596 191.855 139.135 191.855 138.984 C 191.847 96.78 237.528 70.393 274.082 91.487 C 309.673 112.027 310.853 162.974 276.251 185.139 L 276.26 185.151 C 276.26 185.151 235.118 211.636 222.575 247.971 L 222.586 247.974 C 220.38 255.418 219.263 263.14 219.267 270.904 C 219.267 274.095 219.456 302.018 219.818 324.681 C 220.082 340.95 233.348 354 249.62 353.996 C 266.154 353.995 279.527 340.538 279.425 324.006 C 279.299 303.25 279.231 279.083 279.231 277.328 C 279.231 255.018 300.754 232.788 318.433 218.292 C 338.792 201.599 353.442 178.851 359.326 153.19 C 360.628 147.906 361.346 142.497 361.467 137.056 C 361.467 73.932 310.052 22.887 246.928 23.343 Z" fill="#6c63ff" style=""/>
  <path d="M 171.102 160.433 C 155.137 160.43 142.197 147.489 142.195 131.525 C 142.195 126.296 142.199 122.298 142.207 121.73 C 142.45 103.821 146.961 86.228 155.364 70.411 C 141.558 89.311 133.967 112.034 133.641 135.436 C 133.632 136.004 133.629 140.002 133.629 145.231 C 133.631 161.195 146.571 174.136 162.536 174.139 C 175.48 174.134 186.846 165.53 190.365 153.073 C 185.073 157.82 178.211 160.441 171.102 160.433 Z" fill="#3f3d56" style=""/>
  <path d="M 248.888 84.253 C 287.195 86.083 311.836 125.668 296.567 160.846 C 323.926 128.715 306.243 79.016 264.736 71.388 C 239.653 66.778 214.704 80.074 204.544 103.466 C 215.543 90.527 231.926 83.429 248.888 84.253 Z" fill="#3f3d56" style=""/>
  <path d="M 257.782 340.323 C 241.509 340.327 228.244 327.277 227.98 311.007 C 227.617 288.344 227.429 260.422 227.429 257.231 C 227.424 249.467 228.542 241.744 230.748 234.301 L 230.737 234.298 C 232.04 230.562 233.612 226.925 235.444 223.418 C 229.823 230.909 225.349 239.195 222.17 248.004 L 222.181 248.007 C 219.976 255.45 218.858 263.173 218.863 270.937 C 218.863 274.128 219.051 302.05 219.414 324.713 C 219.678 340.983 232.943 354.033 249.216 354.029 C 262.461 354.027 274.116 345.286 277.828 332.572 C 272.349 337.569 265.197 340.334 257.782 340.323 Z" fill="#3f3d56" style=""/>
  <path d="M 242.468 464.312 C 218.436 453.846 211.135 423.268 227.845 403.073 C 203.349 420.959 207.4 458.657 235.138 470.929 C 251.278 478.069 270.196 473.607 281.443 460.007 C 270.14 468.269 255.301 469.907 242.468 464.312 Z" fill="#3f3d56" style=""/>
</svg>